<svg xmlns="http://www.w3.org/2000/svg" viewBox="0 0 800 800">
    <path d="M697.66 400a297.66 297.66 0 0 1-294.72 297.645 297.66 297.66 0 0 1-300.541-291.767A297.66 297.66 0 0 1 391.184 102.47a297.66 297.66 0 0 1 306.243 285.775" fill="#0ff" paint-order="stroke markers fill"/>
    <g paint-order="markers stroke fill" font-weight="400" color="#000" fill="#fff">
        <path overflow="visible" d="M31.477 334.86L5.788 418.134l136.875 59.601c.988 4.661 1.498 7.131 3.442 15.234 3.188 13.333 5.7 26.174 11.579 37.527 5.095 9.871 13.211 19.916 21.1 29.934 4.258 5.421 5.3 6.566 8.096 9.992l-51.962 149.72 15.786 7.277 75.632 34.8L386.19 592.22l122.097 43.92 71.869-152.93-6.467-18.113c10.558-7.509 64.397-44.877 121.808-104.922 31.405-32.857 61.16-69.884 79.513-108.649 18.353-38.764 25.306-81.396 5.735-119.398-22.33-43.383-63.744-61.232-105.66-60.072-41.921 1.167-85.938 17.777-127.028 38.515-79.286 40.002-142.964 93.785-147.723 97.763l-102.399 17.2L267.86 305.8l-2.162 1.121-53.95-29.177zM62.16 365.3l145.707-46.186 57.823 31.297 32.988-17.73 27.364-73.037 89.54-15.042 4.007-3.363s68.88-57.75 145.69-96.507c38.405-19.379 78.706-33.502 110.84-34.394 32.132-.891 54.463 7.94 70.607 39.303 12.608 24.498 9.106 52.9-6.347 85.553-15.451 32.65-42.822 67.399-72.567 98.517-59.513 62.24-127.472 109.864-127.472 109.864l-12 8.363 10.46 29.308-50.354 107.034-112.927-40.587-158.232 168.213-34.832-16.019 47.63-137.152-6.958-8.336s-6.734-8.12-14.228-17.642c-7.495-9.526-16.287-22.042-17.218-23.836-.154-.294-5.379-16.274-8.397-28.873a716.765 716.765 0 0 1-5.249-23.844l-1.989-9.727-123.583-53.76z" style="line-height:normal;font-variant-ligatures:normal;font-variant-position:normal;font-variant-caps:normal;font-variant-numeric:normal;font-variant-alternates:normal;font-variant-east-asian:normal;font-feature-settings:normal;font-variation-settings:normal;text-indent:0;text-align:start;text-decoration-line:none;text-decoration-style:solid;text-decoration-color:#000;text-transform:none;text-orientation:mixed;white-space:normal;shape-padding:0;shape-margin:0;inline-size:0;isolation:auto;mix-blend-mode:normal;solid-color:#000;solid-opacity:1"/>
        <path overflow="visible" d="M158.688 710.013l63.146 29.046 158.995-169.114 117.539 42.269 61.1-129.973-8.19-22.96s276.833-193.389 212.478-318.397C686.788-8.614 407.283 226.58 407.283 226.58l-95.306 15.995-28.683 76.651-17.596 9.45-55.89-30.25L46.79 350.084 29.115 407.43l130.14 56.612s9.396 46.032 15.424 57.687c6.034 11.66 33.782 44.942 33.782 44.942z" style="line-height:normal;font-variant-ligatures:normal;font-variant-position:normal;font-variant-caps:normal;font-variant-numeric:normal;font-variant-alternates:normal;font-variant-east-asian:normal;font-feature-settings:normal;font-variation-settings:normal;text-indent:0;text-align:start;text-decoration-line:none;text-decoration-style:solid;text-decoration-color:#000;text-transform:none;text-orientation:mixed;white-space:normal;shape-padding:0;shape-margin:0;inline-size:0;isolation:auto;mix-blend-mode:normal;solid-color:#000;solid-opacity:1"/>
    </g>
    <path paint-order="markers stroke fill" d="M158.688 710.013l63.146 29.046L380.829 569.94l117.539 42.273 61.1-129.972-8.19-22.96s276.833-193.389 212.478-318.397C686.788-8.614 407.283 226.58 407.283 226.58l-95.306 15.995-28.683 76.651-17.596 9.45-55.89-30.25L46.79 350.084 29.115 407.43l130.14 56.612s9.396 46.032 15.424 57.687c6.034 11.66 33.782 44.942 33.782 44.942z"/>
    <path fill="#fff" d="M224.846 558.14l-32.025 115.99 86.116-97.245 12.25-40.24 7.705 30.008 21.177 22.322S824.786 280.91 741.27 141.367c-43.616-72.882-196.18 18.762-245.554 51.175C380.451 268.67 277.14 358.2 277.14 358.2l-75.422-36.686-140.059 45.39-13.925 28.62 135.37 70.513s-4.842 11.11 10.012 44.237c7.373 16.452 31.731 47.866 31.731 47.866z"/>
    <path d="M214.269 493.215l39.344 50.766s15.555-58.48 45.157-42.169c29.61 16.312 27.72 42.963 27.72 42.963s438.703-253.372 397.073-378.963c-41.632-125.6-419.701 199.894-419.701 199.894s25.608 11.895 28.405 28.589c2.796 16.7-118.003 98.922-118.003 98.922z"/>
    <path d="M290.131 394.07l-86.58-31.522-8.078-23.504-9.214 25.47L29.115 407.43l130.138 56.612 37.089 4.498z"/>
</svg>
