<svg xmlns="http://www.w3.org/2000/svg" viewBox="0 0 454.426 277.606" preserveAspectRatio="xMidYMid meet">
    <path fill="#fff" overflow="visible" d="M2.135 2.138h452.276v273.338H2.138z"/>
    <path d="M0 0v277.605h454.426V0zm4.264 4.266h445.88v269.076H4.265V4.266zM6.498 6.89v263.826h441.43V6.89zm4.365 4.367h432.698V266.35H10.863V11.258zm11.367 11.38v40.015h409.965V22.637zm244.125 49.898c-4.963 0-9.524 1.506-13.685 4.516-4.124 2.951-7.354 7.083-9.69 12.394-2.336 5.313-3.503 11.364-3.503 18.15h18.449c0-3.422.893-6.284 2.681-8.587 1.825-2.302 3.961-3.453 6.407-3.453 2.992 0 5.31 1.357 6.953 4.072 1.642 2.657 2.463 6.11 2.463 10.36 0 10.919-3.45 16.377-10.348 16.377h-8.703v22.223h8.976c3.541 0 6.315 1.358 8.323 4.072 2.007 2.716 3.011 7.32 3.011 13.813 0 4.543-.967 8.29-2.902 11.241-1.934 2.892-4.525 4.338-7.773 4.338-2.884 0-5.31-1.446-7.282-4.338-1.97-2.892-2.957-6.315-2.957-10.27h-18.558c0 7.26 1.15 13.752 3.449 19.477 2.3 5.667 5.676 10.122 10.129 13.37 4.49 3.186 9.342 4.78 14.56 4.78 8.906 0 16.096-3.452 21.57-10.357 5.475-6.906 8.214-16.114 8.214-27.623 0-7.437-1.205-13.665-3.614-18.682-2.409-5.075-5.731-8.852-9.964-11.331 4.014-3.07 7.061-7.052 9.142-11.951 2.117-4.958 3.176-10.212 3.176-15.76 0-11.45-2.536-20.45-7.61-27.003-5.072-6.55-12.044-9.828-20.914-9.828zm70.788.09c-5.876 0-11.17 1.535-15.877 4.604-4.708 3.01-8.358 7.26-10.95 12.748-2.554 5.43-3.832 11.716-3.832 18.858 0 14.343 5.166 25.616 15.495 33.82 3.175 2.538 7.261 5.165 12.261 7.88 5 2.715 8.487 5.34 10.457 7.878 2.008 2.538 3.01 6.08 3.01 10.625 0 4.013-.93 7.142-2.791 9.385-1.825 2.184-4.325 3.275-7.5 3.275-4.963 0-8.558-1.622-10.785-4.87-2.19-3.304-3.285-8.41-3.285-15.315h-19.27c0 8.5 1.314 16.025 3.942 22.576 2.664 6.492 6.606 11.627 11.826 15.403 5.255 3.72 11.112 5.578 17.572 5.578 9.16 0 16.368-3.217 21.623-9.65 5.256-6.432 7.885-15.286 7.885-26.56 0-14.107-4.307-25.173-12.92-33.2-3.54-3.304-8.067-6.373-13.578-9.206-5.51-2.892-9.36-5.665-11.549-8.322-2.19-2.715-3.285-5.726-3.285-9.031 0-3.778.984-6.875 2.955-9.296 2.007-2.479 4.725-3.72 8.156-3.72 3.394 0 6.078 1.447 8.049 4.34 2.007 2.892 3.012 6.965 3.012 12.219h19.16c0-7.85-1.259-14.817-3.778-20.896-2.518-6.139-6.059-10.86-10.62-14.166-4.527-3.305-9.653-4.957-15.383-4.957zm-292.887 1.77l-3.78 36.83h-13.74v16.204h12.1l-2.41 23.372H22.63v16.2h12.152l-3.668 36.3H42.01l3.668-36.3h8.814l-3.668 36.298H61.72l3.668-36.296h14.177V150.8H67.027l2.41-23.371h14.29v-16.203H71.08l3.777-36.83H63.963l-3.777 36.83H51.37l3.725-36.83h-10.84zm47.9 0V203.3h19.215v-45.508h10.402l14.07 45.506h20.585v-1.326l-16.643-51.97c4.78-3.66 8.285-8.44 10.512-14.343 2.263-5.902 3.394-13.34 3.394-22.31 0-12.396-2.665-21.987-7.994-28.774-5.328-6.788-12.719-10.18-22.172-10.18H92.156zm284.621 0V203.3h54.91v-23.906h-35.695v-30.72h30.22v-23.107h-30.22v-27.18h35.805v-23.99h-55.02zm-188.433.001l-29.235 128.905h20.532l4.597-24.081h26.332l4.655 24.081h20.638L206.41 74.396zM111.37 98.39h12.154c3.614 0 6.352 1.594 8.213 4.78 1.862 3.13 2.791 7.468 2.791 13.016 0 5.547-.93 9.884-2.79 13.012-1.826 3.07-4.564 4.604-8.214 4.604H111.37V98.39zm86.006 12.128l8.596 44.71h-17.135zm-147.647 16.91h8.816l-2.41 23.374H47.32zM22.23 214.95v40.018h409.965V214.95z"/>
</svg>
